<?xml version="1.0" encoding="UTF-8"?>
<svg width="752pt" height="752pt" version="1.1" viewBox="0 0 752 752" xmlns="http://www.w3.org/2000/svg">
 <g>
  <path d="m598.11 498.66h-174.28c-0.94531 0-1.8945 0.94531-1.8945 1.8945v7.1055c0 4.2617-3.3164 8.0508-8.0508 8.0508l-75.297-0.003907c-4.2617 0-8.0508-3.7891-8.0508-8.0508v-6.6289c0-0.94531-0.94531-1.8945-1.8945-1.8945h-174.75c-1.4219 0-2.8398 1.4219-2.8398 2.8398v28.887c0 13.734 11.367 25.102 25.102 25.102h399.7c13.734 0 25.102-11.367 25.102-25.102v-28.887c-0.003906-2.3672-1.4258-3.3125-2.8477-3.3125z"/>
  <path d="m207.41 477.35h336.71c12.312 0 21.785-9.9453 21.785-21.785v-210.27c0-26.52-21.785-48.305-48.305-48.305h-283.68c-26.52 0-48.305 21.785-48.305 48.305v210.27c0 12.312 9.9453 21.785 21.785 21.785zm22.258-232.05c0-2.3672 1.8945-4.2617 4.2617-4.2617h284.15c2.3672 0 4.2617 1.8945 4.2617 4.2617v188.48h-292.67z"/>
  <path d="m417.2 296.44c-6.1562-6.1562-16.102-6.1562-22.258 0l-18.941 18.941-18.941-18.941c-6.1562-6.1562-16.102-6.1562-22.258 0s-6.1562 16.102 0 22.258l18.941 18.941-18.941 18.941c-6.1562 6.1562-6.1562 16.102 0 22.258 3.3164 3.3164 7.1055 4.7344 11.367 4.7344s8.0508-1.4219 11.367-4.7344l18.941-18.941 18.941 18.941c3.3164 3.3164 7.1055 4.7344 11.367 4.7344 4.2617 0 8.0508-1.4219 11.367-4.7344 6.1562-6.1562 6.1562-16.102 0-22.258l-18.941-18.941 18.941-18.941c5.2031-5.6836 5.2031-15.629-0.95312-22.258z"/>
 </g>
</svg>
